solid bacon-beacon-sides
facet normal 0.0 0.0 -1.0
  outer loop
    vertex 13.980630046103663 15.101980275007113 0.0
    vertex -21.32690303010099 -16.998019724992883 0.0
    vertex -21.32690303010099 15.101980275007113 0.0
  endloop
endfacet
facet normal 0.0 0.0 -1.0
  outer loop
    vertex -21.32690303010099 -16.998019724992883 0.0
    vertex 13.980630046103663 15.101980275007113 0.0
    vertex 40.773096969899015 -16.998019724992883 0.0
  endloop
endfacet
facet normal 0.0 0.0 -1.0
  outer loop
    vertex 40.773096969899015 -16.998019724992883 0.0
    vertex 13.980630046103663 15.101980275007113 0.0
    vertex 40.773096969899015 -2.82998577635197 0.0
  endloop
endfacet
facet normal 0.556209353335161 0.831042210277241 0.0
  outer loop
    vertex 13.980630046103663 15.101980275007113 7.999999999999999
    vertex 40.773096969899015 -2.82998577635197 0.0
    vertex 13.980630046103663 15.101980275007113 0.0
  endloop
endfacet
facet normal 0.556209353335161 0.831042210277241 0.0
  outer loop
    vertex 40.773096969899015 -2.82998577635197 0.0
    vertex 13.980630046103663 15.101980275007113 7.999999999999999
    vertex 40.773096969899015 -2.82998577635197 7.999999999999999
  endloop
endfacet
facet normal 1.0 0.0 0.0
  outer loop
    vertex 40.773096969899015 -2.82998577635197 0.0
    vertex 40.773096969899015 -16.998019724992883 7.999999999999999
    vertex 40.773096969899015 -16.998019724992883 0.0
  endloop
endfacet
facet normal 1.0 0.0 0.0
  outer loop
    vertex 40.773096969899015 -16.998019724992883 7.999999999999999
    vertex 40.773096969899015 -2.82998577635197 0.0
    vertex 40.773096969899015 -2.82998577635197 7.999999999999999
  endloop
endfacet
facet normal -0.0 -1.0 -0.0
  outer loop
    vertex 40.773096969899015 -16.998019724992883 7.999999999999999
    vertex -21.32690303010099 -16.998019724992883 0.0
    vertex 40.773096969899015 -16.998019724992883 0.0
  endloop
endfacet
facet normal -0.0 -1.0 -0.0
  outer loop
    vertex -21.32690303010099 -16.998019724992883 0.0
    vertex 40.773096969899015 -16.998019724992883 7.999999999999999
    vertex -21.32690303010099 -16.998019724992883 7.999999999999999
  endloop
endfacet
facet normal -1.0 0.0 0.0
  outer loop
    vertex -21.32690303010099 15.101980275007113 7.999999999999999
    vertex -21.32690303010099 -16.998019724992883 0.0
    vertex -21.32690303010099 -16.998019724992883 7.999999999999999
  endloop
endfacet
facet normal -1.0 0.0 0.0
  outer loop
    vertex -21.32690303010099 -16.998019724992883 0.0
    vertex -21.32690303010099 15.101980275007113 7.999999999999999
    vertex -21.32690303010099 15.101980275007113 0.0
  endloop
endfacet
facet normal -0.0 1.0 0.0
  outer loop
    vertex -21.32690303010099 15.101980275007113 7.999999999999999
    vertex 13.980630046103663 15.101980275007113 0.0
    vertex -21.32690303010099 15.101980275007113 0.0
  endloop
endfacet
facet normal -0.0 1.0 0.0
  outer loop
    vertex 13.980630046103663 15.101980275007113 0.0
    vertex -21.32690303010099 15.101980275007113 7.999999999999999
    vertex 13.980630046103663 15.101980275007113 7.999999999999999
  endloop
endfacet
facet normal 0.0 0.0 1.0
  outer loop
    vertex -21.32690303010099 -16.998019724992883 7.999999999999999
    vertex -19.326903030100993 -14.998019724992885 7.999999999999999
    vertex -21.32690303010099 15.101980275007113 7.999999999999999
  endloop
endfacet
facet normal 0.0 0.0 1.0
  outer loop
    vertex -19.326903030100993 -14.998019724992885 7.999999999999999
    vertex -21.32690303010099 -16.998019724992883 7.999999999999999
    vertex 40.773096969899015 -16.998019724992883 7.999999999999999
  endloop
endfacet
facet normal 0.0 0.0 1.0
  outer loop
    vertex -19.326903030100993 -14.998019724992885 7.999999999999999
    vertex 40.773096969899015 -16.998019724992883 7.999999999999999
    vertex 38.773096969899015 -14.998019724992885 7.999999999999999
  endloop
endfacet
facet normal 0.0 0.0 1.0
  outer loop
    vertex 38.773096969899015 -14.998019724992885 7.999999999999999
    vertex 40.773096969899015 -16.998019724992883 7.999999999999999
    vertex 38.773096969899015 -3.898019724992886 7.999999999999999
  endloop
endfacet
facet normal 0.0 0.0 1.0
  outer loop
    vertex -21.32690303010099 15.101980275007113 7.999999999999999
    vertex -19.326903030100993 13.101980275007115 7.999999999999999
    vertex 13.980630046103663 15.101980275007113 7.999999999999999
  endloop
endfacet
facet normal 0.0 0.0 1.0
  outer loop
    vertex -19.326903030100993 13.101980275007115 7.999999999999999
    vertex -21.32690303010099 15.101980275007113 7.999999999999999
    vertex -19.326903030100993 -14.998019724992885 7.999999999999999
  endloop
endfacet
facet normal 0.0 0.0 1.0
  outer loop
    vertex 13.980630046103663 15.101980275007113 7.999999999999999
    vertex -19.326903030100993 13.101980275007115 7.999999999999999
    vertex 13.37309696989901 13.101980275007115 7.999999999999999
  endloop
endfacet
facet normal 0.0 0.0 1.0
  outer loop
    vertex 13.980630046103663 15.101980275007113 7.999999999999999
    vertex 13.37309696989901 13.101980275007115 7.999999999999999
    vertex 38.773096969899015 -3.898019724992886 7.999999999999999
  endloop
endfacet
facet normal 0.0 0.0 1.0
  outer loop
    vertex 13.980630046103663 15.101980275007113 7.999999999999999
    vertex 38.773096969899015 -3.898019724992886 7.999999999999999
    vertex 40.773096969899015 -2.82998577635197 7.999999999999999
  endloop
endfacet
facet normal 0.0 0.0 1.0
  outer loop
    vertex 40.773096969899015 -2.82998577635197 7.999999999999999
    vertex 38.773096969899015 -3.898019724992886 7.999999999999999
    vertex 40.773096969899015 -16.998019724992883 7.999999999999999
  endloop
endfacet
facet normal -0.5562093533351612 -0.8310422102772409 -1.116405967067739e-31
  outer loop
    vertex 38.773096969899015 -3.898019724992886 7.999999999999999
    vertex 13.37309696989901 13.101980275007115 1.9999999999999998
    vertex 38.773096969899015 -3.898019724992886 1.9999999999999998
  endloop
endfacet
facet normal -0.5562093533351612 -0.8310422102772409 -1.116405967067739e-31
  outer loop
    vertex 13.37309696989901 13.101980275007115 1.9999999999999998
    vertex 38.773096969899015 -3.898019724992886 7.999999999999999
    vertex 13.37309696989901 13.101980275007115 7.999999999999999
  endloop
endfacet
facet normal -1.0 0.0 0.0
  outer loop
    vertex 38.773096969899015 -3.898019724992886 7.999999999999999
    vertex 38.773096969899015 -14.998019724992885 1.9999999999999998
    vertex 38.773096969899015 -14.998019724992885 7.999999999999999
  endloop
endfacet
facet normal -1.0 0.0 0.0
  outer loop
    vertex 38.773096969899015 -14.998019724992885 1.9999999999999998
    vertex 38.773096969899015 -3.898019724992886 7.999999999999999
    vertex 38.773096969899015 -3.898019724992886 1.9999999999999998
  endloop
endfacet
facet normal 1.0 -0.0 -0.0
  outer loop
    vertex -19.326903030100993 13.101980275007115 1.9999999999999998
    vertex -19.326903030100993 -14.998019724992885 7.999999999999999
    vertex -19.326903030100993 -14.998019724992885 1.9999999999999998
  endloop
endfacet
facet normal 1.0 -0.0 -0.0
  outer loop
    vertex -19.326903030100993 -14.998019724992885 7.999999999999999
    vertex -19.326903030100993 13.101980275007115 1.9999999999999998
    vertex -19.326903030100993 13.101980275007115 7.999999999999999
  endloop
endfacet
facet normal 0.0 -1.0 0.0
  outer loop
    vertex 13.37309696989901 13.101980275007115 7.999999999999999
    vertex -19.326903030100993 13.101980275007115 1.9999999999999998
    vertex 13.37309696989901 13.101980275007115 1.9999999999999998
  endloop
endfacet
facet normal 0.0 -1.0 0.0
  outer loop
    vertex -19.326903030100993 13.101980275007115 1.9999999999999998
    vertex 13.37309696989901 13.101980275007115 7.999999999999999
    vertex -19.326903030100993 13.101980275007115 7.999999999999999
  endloop
endfacet
facet normal -0.0 1.0 -0.0
  outer loop
    vertex -19.326903030100993 -14.998019724992885 7.999999999999999
    vertex 38.773096969899015 -14.998019724992885 1.9999999999999998
    vertex -19.326903030100993 -14.998019724992885 1.9999999999999998
  endloop
endfacet
facet normal -0.0 1.0 -0.0
  outer loop
    vertex 38.773096969899015 -14.998019724992885 1.9999999999999998
    vertex -19.326903030100993 -14.998019724992885 7.999999999999999
    vertex 38.773096969899015 -14.998019724992885 7.999999999999999
  endloop
endfacet
facet normal 0.0 0.0 -1.0
  outer loop
    vertex 13.37309696989901 13.101980275007115 1.9999999999999998
    vertex -19.326903030100993 -14.998019724992885 1.9999999999999998
    vertex -19.326903030100993 13.101980275007115 1.9999999999999998
  endloop
endfacet
facet normal 0.0 0.0 -1.0
  outer loop
    vertex -19.326903030100993 -14.998019724992885 1.9999999999999998
    vertex 13.37309696989901 13.101980275007115 1.9999999999999998
    vertex 38.773096969899015 -14.998019724992885 1.9999999999999998
  endloop
endfacet
facet normal 0.0 0.0 -1.0
  outer loop
    vertex 38.773096969899015 -14.998019724992885 1.9999999999999998
    vertex 13.37309696989901 13.101980275007115 1.9999999999999998
    vertex 38.773096969899015 -3.898019724992886 1.9999999999999998
  endloop
endfacet
facet normal -1.0 0.0 0.0
  outer loop
    vertex -21.326903030101 42.9930873105465 7.999999999999999
    vertex -21.326903030101 28.825053361905585 0.0
    vertex -21.326903030101 28.825053361905585 7.999999999999999
  endloop
endfacet
facet normal -1.0 0.0 0.0
  outer loop
    vertex -21.326903030101 28.825053361905585 0.0
    vertex -21.326903030101 42.9930873105465 7.999999999999999
    vertex -21.326903030101 42.9930873105465 0.0
  endloop
endfacet
facet normal -0.5562093533351612 0.8310422102772409 0.0
  outer loop
    vertex -21.326903030101 42.9930873105465 7.999999999999999
    vertex 5.465563893694354 60.9250533619056 0.0
    vertex -21.326903030101 42.9930873105465 0.0
  endloop
endfacet
facet normal -0.5562093533351612 0.8310422102772409 0.0
  outer loop
    vertex 5.465563893694354 60.9250533619056 0.0
    vertex -21.326903030101 42.9930873105465 7.999999999999999
    vertex 5.465563893694354 60.9250533619056 7.999999999999999
  endloop
endfacet
facet normal 1.0 0.0 0.0
  outer loop
    vertex 40.77309696989901 60.9250533619056 0.0
    vertex 40.77309696989901 28.825053361905585 7.999999999999999
    vertex 40.77309696989901 28.825053361905585 0.0
  endloop
endfacet
facet normal 1.0 0.0 0.0
  outer loop
    vertex 40.77309696989901 28.825053361905585 7.999999999999999
    vertex 40.77309696989901 60.9250533619056 0.0
    vertex 40.77309696989901 60.9250533619056 7.999999999999999
  endloop
endfacet
facet normal 0.0 0.0 -1.0
  outer loop
    vertex 5.465563893694354 60.9250533619056 0.0
    vertex -21.326903030101 28.825053361905585 0.0
    vertex -21.326903030101 42.9930873105465 0.0
  endloop
endfacet
facet normal 0.0 0.0 -1.0
  outer loop
    vertex -21.326903030101 28.825053361905585 0.0
    vertex 5.465563893694354 60.9250533619056 0.0
    vertex 40.77309696989901 28.825053361905585 0.0
  endloop
endfacet
facet normal 0.0 0.0 -1.0
  outer loop
    vertex 40.77309696989901 28.825053361905585 0.0
    vertex 5.465563893694354 60.9250533619056 0.0
    vertex 40.77309696989901 60.9250533619056 0.0
  endloop
endfacet
facet normal 0.0 1.0 0.0
  outer loop
    vertex 5.465563893694354 60.9250533619056 7.999999999999999
    vertex 40.77309696989901 60.9250533619056 0.0
    vertex 5.465563893694354 60.9250533619056 0.0
  endloop
endfacet
facet normal 0.0 1.0 0.0
  outer loop
    vertex 40.77309696989901 60.9250533619056 0.0
    vertex 5.465563893694354 60.9250533619056 7.999999999999999
    vertex 40.77309696989901 60.9250533619056 7.999999999999999
  endloop
endfacet
facet normal -1.0 0.0 0.0
  outer loop
    vertex 38.77309696989901 58.925053361905604 7.999999999999999
    vertex 38.77309696989901 30.82505336190558 1.9999999999999998
    vertex 38.77309696989901 30.82505336190558 7.999999999999999
  endloop
endfacet
facet normal -1.0 0.0 0.0
  outer loop
    vertex 38.77309696989901 30.82505336190558 1.9999999999999998
    vertex 38.77309696989901 58.925053361905604 7.999999999999999
    vertex 38.77309696989901 58.925053361905604 1.9999999999999998
  endloop
endfacet
facet normal 0.0 0.0 -1.0
  outer loop
    vertex 6.073096969899006 58.925053361905604 1.9999999999999998
    vertex -19.326903030100993 30.82505336190558 1.9999999999999998
    vertex -19.326903030100993 41.92505336190558 1.9999999999999998
  endloop
endfacet
facet normal 0.0 0.0 -1.0
  outer loop
    vertex -19.326903030100993 30.82505336190558 1.9999999999999998
    vertex 6.073096969899006 58.925053361905604 1.9999999999999998
    vertex 38.77309696989901 30.82505336190558 1.9999999999999998
  endloop
endfacet
facet normal 0.0 0.0 -1.0
  outer loop
    vertex 38.77309696989901 30.82505336190558 1.9999999999999998
    vertex 6.073096969899006 58.925053361905604 1.9999999999999998
    vertex 38.77309696989901 58.925053361905604 1.9999999999999998
  endloop
endfacet
facet normal 0.5562093533351616 -0.8310422102772406 -1.0334233322141353e-16
  outer loop
    vertex 6.073096969899006 58.925053361905604 7.999999999999999
    vertex -19.326903030100993 41.92505336190558 1.9999999999999998
    vertex 6.073096969899006 58.925053361905604 1.9999999999999998
  endloop
endfacet
facet normal 0.5562093533351616 -0.8310422102772406 -1.0334233322141353e-16
  outer loop
    vertex -19.326903030100993 41.92505336190558 1.9999999999999998
    vertex 6.073096969899006 58.925053361905604 7.999999999999999
    vertex -19.326903030100993 41.92505336190558 7.999999999999999
  endloop
endfacet
facet normal 1.0 0.0 0.0
  outer loop
    vertex -19.326903030100993 41.92505336190558 1.9999999999999998
    vertex -19.326903030100993 30.82505336190558 7.999999999999999
    vertex -19.326903030100993 30.82505336190558 1.9999999999999998
  endloop
endfacet
facet normal 1.0 0.0 0.0
  outer loop
    vertex -19.326903030100993 30.82505336190558 7.999999999999999
    vertex -19.326903030100993 41.92505336190558 1.9999999999999998
    vertex -19.326903030100993 41.92505336190558 7.999999999999999
  endloop
endfacet
facet normal 0.0 0.0 1.0
  outer loop
    vertex -21.326903030101 28.825053361905585 7.999999999999999
    vertex -19.326903030100993 30.82505336190558 7.999999999999999
    vertex -21.326903030101 42.9930873105465 7.999999999999999
  endloop
endfacet
facet normal 0.0 0.0 1.0
  outer loop
    vertex -19.326903030100993 30.82505336190558 7.999999999999999
    vertex -21.326903030101 28.825053361905585 7.999999999999999
    vertex 40.77309696989901 28.825053361905585 7.999999999999999
  endloop
endfacet
facet normal 0.0 0.0 1.0
  outer loop
    vertex -19.326903030100993 30.82505336190558 7.999999999999999
    vertex 40.77309696989901 28.825053361905585 7.999999999999999
    vertex 38.77309696989901 30.82505336190558 7.999999999999999
  endloop
endfacet
facet normal 0.0 0.0 1.0
  outer loop
    vertex 38.77309696989901 30.82505336190558 7.999999999999999
    vertex 40.77309696989901 28.825053361905585 7.999999999999999
    vertex 38.77309696989901 58.925053361905604 7.999999999999999
  endloop
endfacet
facet normal 0.0 0.0 1.0
  outer loop
    vertex -21.326903030101 42.9930873105465 7.999999999999999
    vertex -19.326903030100993 41.92505336190558 7.999999999999999
    vertex 5.465563893694354 60.9250533619056 7.999999999999999
  endloop
endfacet
facet normal 0.0 0.0 1.0
  outer loop
    vertex -19.326903030100993 41.92505336190558 7.999999999999999
    vertex -21.326903030101 42.9930873105465 7.999999999999999
    vertex -19.326903030100993 30.82505336190558 7.999999999999999
  endloop
endfacet
facet normal 0.0 0.0 1.0
  outer loop
    vertex 5.465563893694354 60.9250533619056 7.999999999999999
    vertex -19.326903030100993 41.92505336190558 7.999999999999999
    vertex 6.073096969899006 58.925053361905604 7.999999999999999
  endloop
endfacet
facet normal 0.0 0.0 1.0
  outer loop
    vertex 5.465563893694354 60.9250533619056 7.999999999999999
    vertex 6.073096969899006 58.925053361905604 7.999999999999999
    vertex 40.77309696989901 60.9250533619056 7.999999999999999
  endloop
endfacet
facet normal 0.0 0.0 1.0
  outer loop
    vertex 40.77309696989901 60.9250533619056 7.999999999999999
    vertex 6.073096969899006 58.925053361905604 7.999999999999999
    vertex 38.77309696989901 58.925053361905604 7.999999999999999
  endloop
endfacet
facet normal 0.0 0.0 1.0
  outer loop
    vertex 40.77309696989901 60.9250533619056 7.999999999999999
    vertex 38.77309696989901 58.925053361905604 7.999999999999999
    vertex 40.77309696989901 28.825053361905585 7.999999999999999
  endloop
endfacet
facet normal -0.0 -1.0 0.0
  outer loop
    vertex 40.77309696989901 28.825053361905585 7.999999999999999
    vertex -21.326903030101 28.825053361905585 0.0
    vertex 40.77309696989901 28.825053361905585 0.0
  endloop
endfacet
facet normal -0.0 -1.0 0.0
  outer loop
    vertex -21.326903030101 28.825053361905585 0.0
    vertex 40.77309696989901 28.825053361905585 7.999999999999999
    vertex -21.326903030101 28.825053361905585 7.999999999999999
  endloop
endfacet
facet normal -0.0 -1.0 0.0
  outer loop
    vertex 38.77309696989901 58.925053361905604 7.999999999999999
    vertex 6.073096969899006 58.925053361905604 1.9999999999999998
    vertex 38.77309696989901 58.925053361905604 1.9999999999999998
  endloop
endfacet
facet normal -0.0 -1.0 0.0
  outer loop
    vertex 6.073096969899006 58.925053361905604 1.9999999999999998
    vertex 38.77309696989901 58.925053361905604 7.999999999999999
    vertex 6.073096969899006 58.925053361905604 7.999999999999999
  endloop
endfacet
facet normal 0.0 1.0 0.0
  outer loop
    vertex -19.326903030100993 30.82505336190558 7.999999999999999
    vertex 38.77309696989901 30.82505336190558 1.9999999999999998
    vertex -19.326903030100993 30.82505336190558 1.9999999999999998
  endloop
endfacet
facet normal 0.0 1.0 0.0
  outer loop
    vertex 38.77309696989901 30.82505336190558 1.9999999999999998
    vertex -19.326903030100993 30.82505336190558 7.999999999999999
    vertex 38.77309696989901 30.82505336190558 7.999999999999999
  endloop
endfacet
endsolid bacon-beacon-sides
