solid bacon-beacon-middle
facet normal 0.0 0.0 -1.0
  outer loop
    vertex -23.1309857479541 16.17165501525072 0.0
    vertex -21.130985747954103 14.171655015250723 0.0
    vertex -23.1309857479541 -11.828344984749274 0.0
  endloop
endfacet
facet normal 0.0 0.0 -1.0
  outer loop
    vertex -21.130985747954103 14.171655015250723 0.0
    vertex -23.1309857479541 16.17165501525072 0.0
    vertex 9.474565527509915 16.17165501525072 0.0
  endloop
endfacet
facet normal 0.0 0.0 -1.0
  outer loop
    vertex -21.130985747954103 14.171655015250723 0.0
    vertex 9.474565527509915 16.17165501525072 0.0
    vertex 8.869014252045886 14.171655015250723 0.0
  endloop
endfacet
facet normal 0.0 0.0 -1.0
  outer loop
    vertex 8.869014252045886 14.171655015250723 0.0
    vertex 9.474565527509915 16.17165501525072 0.0
    vertex 32.869014252045886 -1.8283449847492697 0.0
  endloop
endfacet
facet normal 0.0 0.0 -1.0
  outer loop
    vertex 32.869014252045886 -1.8283449847492697 0.0
    vertex 9.474565527509915 16.17165501525072 0.0
    vertex 34.869014252045886 -0.7579774677732523 0.0
  endloop
endfacet
facet normal 0.0 0.0 -1.0
  outer loop
    vertex 32.869014252045886 -1.8283449847492697 0.0
    vertex 34.869014252045886 -0.7579774677732523 0.0
    vertex 32.869014252045886 -9.828344984749277 0.0
  endloop
endfacet
facet normal 0.0 0.0 -1.0
  outer loop
    vertex -23.1309857479541 -11.828344984749274 0.0
    vertex -21.130985747954103 -9.828344984749277 0.0
    vertex 34.869014252045886 -11.828344984749274 0.0
  endloop
endfacet
facet normal 0.0 0.0 -1.0
  outer loop
    vertex -21.130985747954103 -9.828344984749277 0.0
    vertex -23.1309857479541 -11.828344984749274 0.0
    vertex -21.130985747954103 14.171655015250723 0.0
  endloop
endfacet
facet normal 0.0 0.0 -1.0
  outer loop
    vertex 34.869014252045886 -11.828344984749274 0.0
    vertex -21.130985747954103 -9.828344984749277 0.0
    vertex 32.869014252045886 -9.828344984749277 0.0
  endloop
endfacet
facet normal 0.0 0.0 -1.0
  outer loop
    vertex 34.869014252045886 -11.828344984749274 0.0
    vertex 32.869014252045886 -9.828344984749277 0.0
    vertex 34.869014252045886 -0.7579774677732523 0.0
  endloop
endfacet
facet normal 1.0 0.0 0.0
  outer loop
    vertex -21.130985747954103 14.171655015250723 0.0
    vertex -21.130985747954103 -9.828344984749277 24.0
    vertex -21.130985747954103 -9.828344984749277 0.0
  endloop
endfacet
facet normal 1.0 0.0 0.0
  outer loop
    vertex -21.130985747954103 -9.828344984749277 24.0
    vertex -21.130985747954103 14.171655015250723 0.0
    vertex -21.130985747954103 14.171655015250723 24.0
  endloop
endfacet
facet normal 0.0 1.0 0.0
  outer loop
    vertex -23.1309857479541 16.17165501525072 24.0
    vertex 9.474565527509915 16.17165501525072 0.0
    vertex -23.1309857479541 16.17165501525072 0.0
  endloop
endfacet
facet normal 0.0 1.0 0.0
  outer loop
    vertex 9.474565527509915 16.17165501525072 0.0
    vertex -23.1309857479541 16.17165501525072 24.0
    vertex 9.474565527509915 16.17165501525072 24.0
  endloop
endfacet
facet normal 0.0 -1.0 0.0
  outer loop
    vertex 8.869014252045886 14.171655015250723 24.0
    vertex -21.130985747954103 14.171655015250723 0.0
    vertex 8.869014252045886 14.171655015250723 0.0
  endloop
endfacet
facet normal 0.0 -1.0 0.0
  outer loop
    vertex -21.130985747954103 14.171655015250723 0.0
    vertex 8.869014252045886 14.171655015250723 24.0
    vertex -21.130985747954103 14.171655015250723 24.0
  endloop
endfacet
facet normal -1.0 0.0 0.0
  outer loop
    vertex 32.869014252045886 -1.8283449847492697 24.0
    vertex 32.869014252045886 -9.828344984749277 0.0
    vertex 32.869014252045886 -9.828344984749277 24.0
  endloop
endfacet
facet normal -1.0 0.0 0.0
  outer loop
    vertex 32.869014252045886 -9.828344984749277 0.0
    vertex 32.869014252045886 -1.8283449847492697 24.0
    vertex 32.869014252045886 -1.8283449847492697 0.0
  endloop
endfacet
facet normal 0.0 1.0 0.0
  outer loop
    vertex -21.130985747954103 -9.828344984749277 24.0
    vertex 32.869014252045886 -9.828344984749277 0.0
    vertex -21.130985747954103 -9.828344984749277 0.0
  endloop
endfacet
facet normal 0.0 1.0 0.0
  outer loop
    vertex 32.869014252045886 -9.828344984749277 0.0
    vertex -21.130985747954103 -9.828344984749277 24.0
    vertex 32.869014252045886 -9.828344984749277 24.0
  endloop
endfacet
facet normal 0.0 0.0 1.0
  outer loop
    vertex -23.1309857479541 -11.828344984749274 24.0
    vertex -21.130985747954103 -9.828344984749277 24.0
    vertex -23.1309857479541 16.17165501525072 24.0
  endloop
endfacet
facet normal 0.0 0.0 1.0
  outer loop
    vertex -21.130985747954103 -9.828344984749277 24.0
    vertex -23.1309857479541 -11.828344984749274 24.0
    vertex 34.869014252045886 -11.828344984749274 24.0
  endloop
endfacet
facet normal 0.0 0.0 1.0
  outer loop
    vertex -21.130985747954103 -9.828344984749277 24.0
    vertex 34.869014252045886 -11.828344984749274 24.0
    vertex 32.869014252045886 -9.828344984749277 24.0
  endloop
endfacet
facet normal 0.0 0.0 1.0
  outer loop
    vertex 32.869014252045886 -9.828344984749277 24.0
    vertex 34.869014252045886 -11.828344984749274 24.0
    vertex 32.869014252045886 -1.8283449847492697 24.0
  endloop
endfacet
facet normal 0.0 0.0 1.0
  outer loop
    vertex -23.1309857479541 16.17165501525072 24.0
    vertex -21.130985747954103 14.171655015250723 24.0
    vertex 9.474565527509915 16.17165501525072 24.0
  endloop
endfacet
facet normal 0.0 0.0 1.0
  outer loop
    vertex -21.130985747954103 14.171655015250723 24.0
    vertex -23.1309857479541 16.17165501525072 24.0
    vertex -21.130985747954103 -9.828344984749277 24.0
  endloop
endfacet
facet normal 0.0 0.0 1.0
  outer loop
    vertex 9.474565527509915 16.17165501525072 24.0
    vertex -21.130985747954103 14.171655015250723 24.0
    vertex 8.869014252045886 14.171655015250723 24.0
  endloop
endfacet
facet normal 0.0 0.0 1.0
  outer loop
    vertex 9.474565527509915 16.17165501525072 24.0
    vertex 8.869014252045886 14.171655015250723 24.0
    vertex 32.869014252045886 -1.8283449847492697 24.0
  endloop
endfacet
facet normal 0.0 0.0 1.0
  outer loop
    vertex 9.474565527509915 16.17165501525072 24.0
    vertex 32.869014252045886 -1.8283449847492697 24.0
    vertex 34.869014252045886 -0.7579774677732523 24.0
  endloop
endfacet
facet normal 0.0 0.0 1.0
  outer loop
    vertex 34.869014252045886 -0.7579774677732523 24.0
    vertex 32.869014252045886 -1.8283449847492697 24.0
    vertex 34.869014252045886 -11.828344984749274 24.0
  endloop
endfacet
facet normal 1.0 0.0 0.0
  outer loop
    vertex 34.869014252045886 -0.7579774677732523 0.0
    vertex 34.869014252045886 -11.828344984749274 24.0
    vertex 34.869014252045886 -11.828344984749274 0.0
  endloop
endfacet
facet normal 1.0 0.0 0.0
  outer loop
    vertex 34.869014252045886 -11.828344984749274 24.0
    vertex 34.869014252045886 -0.7579774677732523 0.0
    vertex 34.869014252045886 -0.7579774677732523 24.0
  endloop
endfacet
facet normal -0.554700196225229 -0.8320502943378438 -5.026770421929971e-18
  outer loop
    vertex 32.869014252045886 -1.8283449847492697 24.0
    vertex 8.869014252045886 14.171655015250723 0.0
    vertex 32.869014252045886 -1.8283449847492697 0.0
  endloop
endfacet
facet normal -0.554700196225229 -0.8320502943378438 -5.026770421929971e-18
  outer loop
    vertex 8.869014252045886 14.171655015250723 0.0
    vertex 32.869014252045886 -1.8283449847492697 24.0
    vertex 8.869014252045886 14.171655015250723 24.0
  endloop
endfacet
facet normal 0.5547001962252289 0.8320502943378438 0.0
  outer loop
    vertex 9.474565527509915 16.17165501525072 24.0
    vertex 34.869014252045886 -0.7579774677732523 0.0
    vertex 9.474565527509915 16.17165501525072 0.0
  endloop
endfacet
facet normal 0.5547001962252289 0.8320502943378438 0.0
  outer loop
    vertex 34.869014252045886 -0.7579774677732523 0.0
    vertex 9.474565527509915 16.17165501525072 24.0
    vertex 34.869014252045886 -0.7579774677732523 24.0
  endloop
endfacet
facet normal -1.0 0.0 0.0
  outer loop
    vertex -23.1309857479541 16.17165501525072 24.0
    vertex -23.1309857479541 -11.828344984749274 0.0
    vertex -23.1309857479541 -11.828344984749274 24.0
  endloop
endfacet
facet normal -1.0 0.0 0.0
  outer loop
    vertex -23.1309857479541 -11.828344984749274 0.0
    vertex -23.1309857479541 16.17165501525072 24.0
    vertex -23.1309857479541 16.17165501525072 0.0
  endloop
endfacet
facet normal -0.0 -1.0 -0.0
  outer loop
    vertex 34.869014252045886 -11.828344984749274 24.0
    vertex -23.1309857479541 -11.828344984749274 0.0
    vertex 34.869014252045886 -11.828344984749274 0.0
  endloop
endfacet
facet normal -0.0 -1.0 -0.0
  outer loop
    vertex -23.1309857479541 -11.828344984749274 0.0
    vertex 34.869014252045886 -11.828344984749274 24.0
    vertex -23.1309857479541 -11.828344984749274 24.0
  endloop
endfacet
endsolid bacon-beacon-middle
